<svg xmlns="http://www.w3.org/2000/svg" xmlns:xlink="http://www.w3.org/1999/xlink" width="500" zoomAndPan="magnify" viewBox="0 0 375 374.999991" height="500" preserveAspectRatio="xMidYMid meet" version="1.2"><defs><clipPath id="b951fba31d"><path d="M 32.816406 38 L 233 38 L 233 258 L 32.816406 258 Z M 32.816406 38 "/></clipPath><clipPath id="1599d8b0ff"><path d="M 67 50 L 332 50 L 332 346.441406 L 67 346.441406 Z M 67 50 "/></clipPath><clipPath id="92145cf623"><path d="M 373.800781 372.710938 L 375 372.710938 L 375 373.910156 L 373.800781 373.910156 Z M 373.800781 372.710938 "/></clipPath><clipPath id="7b80bba1f2"><path d="M 374.398438 372.710938 C 374.070312 372.710938 373.800781 372.976562 373.800781 373.308594 C 373.800781 373.640625 374.070312 373.910156 374.398438 373.910156 C 374.730469 373.910156 375 373.640625 375 373.308594 C 375 372.976562 374.730469 372.710938 374.398438 372.710938 Z M 374.398438 372.710938 "/></clipPath></defs><g id="a353976fcc"><g clip-rule="nonzero" clip-path="url(#b951fba31d)"><path style=" stroke:none;fill-rule:nonzero;fill:#053195;fill-opacity:1;" d="M 197.925781 65.300781 L 200.101562 65.378906 L 200.835938 67.429688 C 223.667969 131.011719 180.933594 213.179688 123.410156 244.273438 C 129.058594 249.265625 142.398438 257.386719 145.496094 257.308594 C 199.546875 223.445312 233.867188 168.59375 232.269531 104.074219 C 231.894531 97.703125 231.433594 91.324219 230.699219 85.054688 C 229.546875 77.046875 224.535156 49.984375 219.714844 42.8125 C 150.019531 28.492188 89.925781 50.3125 35.296875 93.824219 C 33.914062 105.671875 33.042969 117.59375 32.816406 129.515625 C 82.867188 84.523438 128.058594 62.785156 197.925781 65.300781 Z M 197.925781 65.300781 "/></g><g clip-rule="nonzero" clip-path="url(#1599d8b0ff)"><path style=" stroke:none;fill-rule:nonzero;fill:#053195;fill-opacity:1;" d="M 329.71875 90.46875 C 304.507812 74.300781 277.492188 60.109375 249 50.640625 C 251.367188 56.890625 253.402344 63.289062 255.121094 69.761719 L 254.355469 69.660156 C 254.824219 69.835938 255.121094 70.105469 255.292969 70.460938 L 255.605469 71.636719 C 255.703125 72.550781 255.671875 73.589844 256.273438 74.363281 L 256.28125 74.398438 C 270.898438 148.738281 227.535156 243.484375 165.148438 278.042969 C 168.84375 283.484375 190.019531 295.21875 193.339844 292.75 C 278.796875 229.066406 286.378906 156.785156 285.144531 94.445312 C 291.332031 97.710938 297.433594 101.160156 303.433594 104.746094 L 304.898438 105.621094 L 305 107.316406 C 310.957031 207.171875 271.234375 273.765625 180.996094 316.898438 L 179.578125 317.570312 L 178.175781 316.886719 C 147.671875 301.808594 119.484375 282.878906 98.246094 257.285156 C 102.816406 227.351562 135.804688 186.796875 168.214844 185.316406 C 176.550781 173.769531 177.386719 172.074219 182.65625 158.976562 C 135.117188 155.417969 96.195312 191.867188 79.34375 229.066406 C 74.335938 238.851562 70.375 249.074219 67.433594 259.664062 C 94.761719 299.808594 135.765625 326.367188 179.367188 346.195312 C 294.246094 296.195312 341.832031 213.28125 329.71875 90.46875 Z M 329.71875 90.46875 "/></g><path style=" stroke:none;fill-rule:nonzero;fill:#053195;fill-opacity:1;" d="M 188.539062 127.847656 C 190.628906 118.152344 190.992188 110.488281 190.542969 100.667969 C 186.753906 100.539062 182.921875 100.578125 179.148438 100.667969 C 148.484375 101.386719 121.1875 105.882812 94.308594 121.40625 C 83.171875 127.847656 72.878906 135.660156 63.253906 144.160156 C 57.109375 149.597656 37.222656 171.566406 35.609375 177.902344 C 36.238281 188.378906 41.074219 205.628906 45.855469 218.144531 C 67.066406 155.402344 122.902344 124.640625 188.539062 127.847656 Z M 188.539062 127.847656 "/><g clip-rule="nonzero" clip-path="url(#92145cf623)"><g clip-rule="nonzero" clip-path="url(#7b80bba1f2)"><path style=" stroke:none;fill-rule:nonzero;fill:#ffffff;fill-opacity:1;" d="M 373.800781 372.710938 L 375 372.710938 L 375 373.910156 L 373.800781 373.910156 Z M 373.800781 372.710938 "/></g></g></g></svg>